<svg width="1000" height="1000" viewBox="0 0 1000 1000" fill="none" xmlns="http://www.w3.org/2000/svg">
<rect width="1000" height="1000" rx="128" fill="white"/>
<g clip-path="url(#clip0_501_24)">
<path d="M432.699 638.942C429.037 638.942 425.375 638.024 421.982 636.026C411.696 630.086 408.142 616.856 414.119 606.542L549.237 371.858C555.161 361.544 568.301 358.034 578.641 363.974C588.927 369.914 592.481 383.144 586.503 393.458L451.386 628.142C447.401 635.054 440.184 638.942 432.753 638.942H432.699Z" fill="#1F84FF"/>
<path d="M500.285 219.146C510.355 219.146 520.264 221.792 528.988 226.868L721.891 338.54C739.608 348.8 750.594 367.862 750.594 388.382V611.726C750.594 632.192 739.608 651.308 721.891 661.568L528.988 773.24C520.264 778.262 510.355 780.962 500.285 780.962C490.214 780.962 480.305 778.316 471.581 773.24L278.732 661.46C261.015 651.2 250.029 632.138 250.029 611.618V388.328C250.029 367.862 261.015 348.746 278.732 338.486L471.581 226.868C480.305 221.846 490.214 219.146 500.285 219.146ZM500.285 176C482.944 176 465.603 180.482 450.093 189.5L257.191 301.172C226.118 319.154 207 352.364 207 388.328V611.672C207 647.636 226.118 680.846 257.191 698.828L450.093 810.5C465.603 819.518 482.944 824 500.285 824C517.625 824 534.966 819.518 550.476 810.5L743.378 698.828C774.451 680.846 793.569 647.636 793.569 611.672V388.328C793.569 352.364 774.451 319.154 743.378 301.172L550.476 189.5C534.966 180.482 517.625 176 500.285 176Z" fill="#202A45"/>
</g>
<defs>
<clipPath id="clip0_501_24">
<rect width="587" height="648" fill="white" transform="translate(207 176)"/>
</clipPath>
</defs>
</svg>
