<svg width="275" height="62" viewBox="0 0 275 62" fill="none" xmlns="http://www.w3.org/2000/svg">
<path d="M233.5 40.12C233.5 37.23 233.98 34.49 234.95 31.9C235.91 29.31 237.26 27.03 238.99 25.08C240.72 23.13 242.77 21.58 245.16 20.43C247.55 19.28 250.16 18.7 253.01 18.7C254.64 18.7 256.15 18.89 257.55 19.27C258.95 19.65 260.19 20.16 261.29 20.81C262.38 21.46 263.35 22.19 264.19 23C265.03 23.81 265.7 24.62 266.21 25.43V4.83002C266.21 3.60002 266.55 2.59001 267.24 1.81001C267.93 1.03001 268.95 0.640015 270.33 0.640015C271.71 0.640015 272.76 1.03001 273.49 1.80001C274.23 2.58001 274.59 3.58002 274.59 4.81002V40.6C274.59 43.44 274.11 46.12 273.14 48.66C272.17 51.2 270.8 53.43 269.02 55.36C267.24 57.29 265.08 58.81 262.54 59.93C260 61.05 257.18 61.61 254.08 61.61C250.98 61.61 248.08 61.02 245.54 59.84C243 58.66 240.84 57.1 239.06 55.15C237.28 53.2 235.91 50.92 234.94 48.33C233.97 45.74 233.49 42.99 233.49 40.11L233.5 40.12ZM241.88 40.12C241.88 42.09 242.17 43.92 242.76 45.62C243.34 47.32 244.17 48.78 245.24 50.01C246.31 51.23 247.59 52.2 249.09 52.92C250.59 53.64 252.25 54 254.08 54C255.76 54 257.33 53.67 258.81 53C260.28 52.34 261.58 51.4 262.7 50.21C263.82 49.01 264.69 47.57 265.33 45.86C265.96 44.16 266.28 42.24 266.28 40.12C266.28 38 265.95 36.08 265.29 34.38C264.63 32.68 263.75 31.23 262.66 30.03C261.57 28.83 260.27 27.92 258.77 27.28C257.27 26.64 255.68 26.32 254.01 26.32C252.18 26.32 250.52 26.67 249.02 27.36C247.52 28.05 246.25 29.02 245.21 30.27C244.17 31.52 243.35 32.98 242.77 34.66C242.19 36.33 241.89 38.16 241.89 40.12H241.88Z" fill="white"/>
<path d="M219.86 6.50002C219.86 4.79002 220.42 3.38003 221.54 2.29003C222.66 1.19003 223.95 0.650024 225.43 0.650024C226.91 0.650024 228.2 1.20003 229.32 2.29003C230.44 3.39003 231 4.79002 231 6.50002C231 8.21002 230.44 9.60002 229.32 10.67C228.2 11.74 226.91 12.27 225.43 12.27C223.95 12.27 222.66 11.74 221.54 10.67C220.42 9.60002 219.86 8.21002 219.86 6.50002ZM221.23 23.11C221.23 21.88 221.58 20.84 222.3 19.98C223.01 19.12 224.05 18.7 225.43 18.7C226.81 18.7 227.84 19.13 228.56 19.98C229.27 20.84 229.63 21.88 229.63 23.11V56.41C229.63 57.64 229.27 58.68 228.56 59.54C227.85 60.4 226.81 60.82 225.43 60.82C224.05 60.82 223.02 60.39 222.3 59.54C221.59 58.69 221.23 57.64 221.23 56.41V23.11Z" fill="white"/>
<path d="M217.4 40.2C217.4 43.09 216.92 45.83 215.95 48.42C214.98 51.02 213.6 53.29 211.8 55.24C210 57.19 207.82 58.74 205.28 59.89C202.74 61.04 199.89 61.61 196.74 61.61C193.59 61.61 190.74 61.03 188.2 59.89C185.66 58.74 183.49 57.19 181.68 55.24C179.88 53.29 178.49 51.01 177.53 48.42C176.56 45.83 176.08 43.08 176.08 40.2C176.08 37.32 176.56 34.57 177.53 31.98C178.49 29.39 179.88 27.11 181.68 25.16C183.48 23.21 185.66 21.64 188.2 20.47C190.74 19.29 193.59 18.7 196.74 18.7C199.89 18.7 202.74 19.29 205.28 20.47C207.82 21.65 209.99 23.21 211.8 25.16C213.6 27.11 214.99 29.39 215.95 31.98C216.91 34.58 217.4 37.32 217.4 40.2ZM184.47 40.2C184.47 42.17 184.75 43.99 185.31 45.66C185.87 47.33 186.68 48.8 187.75 50.05C188.82 51.3 190.1 52.27 191.6 52.96C193.1 53.65 194.81 54 196.74 54C198.67 54 200.32 53.66 201.85 52.96C203.37 52.27 204.67 51.3 205.74 50.05C206.81 48.8 207.62 47.34 208.18 45.66C208.74 43.99 209.02 42.16 209.02 40.2C209.02 38.24 208.74 36.4 208.18 34.7C207.62 33 206.81 31.54 205.74 30.31C204.67 29.09 203.38 28.12 201.85 27.4C200.33 26.68 198.62 26.32 196.74 26.32C194.86 26.32 193.09 26.68 191.6 27.4C190.1 28.12 188.82 29.09 187.75 30.31C186.68 31.53 185.87 33 185.31 34.7C184.75 36.4 184.47 38.24 184.47 40.2Z" fill="white"/>
<path d="M175.11 53.44C176.18 54.19 176.71 55.23 176.71 56.57C176.71 57.8 176.3 58.82 175.49 59.62C174.68 60.42 173.74 60.82 172.67 60.82C172.01 60.82 171.39 60.7 170.8 60.46C170.21 60.22 169.64 59.94 169.08 59.62C167.3 58.55 165.97 57.07 165.08 55.17C164.19 53.27 163.75 50.77 163.75 47.67V5.13002C163.75 3.90002 164.11 2.84001 164.82 1.96001C165.53 1.08001 166.57 0.640015 167.95 0.640015C169.33 0.640015 170.39 1.08001 171.15 1.96001C171.91 2.84001 172.29 3.90002 172.29 5.13002V46.29C172.29 48.48 172.53 50.06 173.01 51.02C173.49 51.98 174.19 52.78 175.11 53.43V53.44Z" fill="white"/>
<path d="M142.17 54C144.61 54 146.62 53.68 148.19 53.04C149.76 52.4 151.19 51.54 152.46 50.47C153.37 49.72 154.29 49.48 155.2 49.75C156.11 50.02 156.85 50.54 157.41 51.31C157.97 52.09 158.24 53.01 158.21 54.09C158.18 55.17 157.69 56.11 156.72 56.92C155.04 58.38 152.96 59.53 150.47 60.37C147.98 61.21 145.21 61.63 142.16 61.63C139.11 61.63 136.14 61.09 133.55 60.03C130.96 58.96 128.73 57.48 126.88 55.58C125.02 53.68 123.59 51.42 122.57 48.8C121.55 46.18 121.05 43.32 121.05 40.21C121.05 37.1 121.58 34.25 122.65 31.62C123.72 29 125.17 26.73 126.99 24.8C128.82 22.87 130.93 21.38 133.32 20.31C135.71 19.24 138.2 18.71 140.79 18.71C143.38 18.71 145.86 19.18 148.22 20.11C150.58 21.05 152.65 22.38 154.43 24.12C156.21 25.86 157.63 27.95 158.7 30.38C159.77 32.81 160.3 35.56 160.3 38.6C160.3 40.15 159.93 41.4 159.2 42.33C158.46 43.27 157.23 43.73 155.5 43.73H129.81C130.06 45.27 130.55 46.66 131.26 47.91C131.97 49.16 132.87 50.23 133.97 51.13C135.06 52.03 136.3 52.74 137.67 53.24C139.04 53.74 140.54 54 142.17 54ZM151.93 36.51C151.93 35.4 151.68 34.24 151.17 33.05C150.66 31.86 149.92 30.75 148.96 29.75C147.99 28.74 146.83 27.92 145.45 27.28C144.07 26.64 142.53 26.32 140.8 26.32C139.38 26.32 138.04 26.59 136.8 27.12C135.55 27.65 134.44 28.37 133.45 29.27C132.46 30.17 131.65 31.25 131.01 32.49C130.37 33.74 129.96 35.08 129.75 36.51H151.93Z" fill="white"/>
<path d="M102.65 61.62C100.36 61.62 98.3701 61 96.6701 59.77C94.9701 58.54 93.5601 56.35 92.4401 53.19L84.2801 25.35C83.8201 24.12 83.8201 22.98 84.2801 21.94C84.7401 20.9 85.6301 20.16 86.9501 19.73C88.3201 19.3 89.4401 19.42 90.3001 20.09C91.1601 20.76 91.8001 21.71 92.2101 22.94L100.21 51.9C100.46 52.76 100.81 53.33 101.24 53.63C101.67 53.92 102.14 54.07 102.65 54.07C103.16 54.07 103.65 53.92 104.14 53.63C104.62 53.34 104.99 52.76 105.24 51.9L113.02 22.94C113.43 21.71 114.07 20.76 114.96 20.09C115.85 19.42 116.98 19.3 118.35 19.73C119.67 20.16 120.56 20.89 121.02 21.94C121.48 22.98 121.48 24.12 121.02 25.35L113.02 53.19C111.85 56.35 110.4 58.54 108.68 59.77C106.95 61 104.94 61.62 102.66 61.62H102.65Z" fill="white"/>
<path d="M66.0599 54C68.4999 54 70.5099 53.68 72.0799 53.04C73.6499 52.4 75.0799 51.54 76.3499 50.47C77.2599 49.72 78.1799 49.48 79.0899 49.75C79.9999 50.02 80.7399 50.54 81.2999 51.31C81.8599 52.09 82.1299 53.01 82.0999 54.09C82.0699 55.17 81.5799 56.11 80.6099 56.92C78.9299 58.38 76.8499 59.53 74.3599 60.37C71.8699 61.21 69.0999 61.63 66.0499 61.63C62.9999 61.63 60.0299 61.09 57.4399 60.03C54.8499 58.96 52.6199 57.48 50.7699 55.58C48.9099 53.68 47.4799 51.42 46.4599 48.8C45.4399 46.18 44.9399 43.32 44.9399 40.21C44.9399 37.1 45.4699 34.25 46.5399 31.62C47.6099 29 49.0599 26.73 50.8799 24.8C52.7099 22.87 54.8199 21.38 57.2099 20.31C59.5999 19.24 62.0899 18.71 64.6799 18.71C67.2699 18.71 69.7499 19.18 72.1099 20.11C74.4699 21.05 76.5399 22.38 78.3199 24.12C80.0999 25.86 81.5199 27.95 82.5899 30.38C83.6599 32.81 84.1899 35.56 84.1899 38.6C84.1899 40.15 83.8199 41.4 83.0899 42.33C82.3499 43.27 81.1199 43.73 79.3899 43.73H53.6999C53.9499 45.27 54.4399 46.66 55.1499 47.91C55.8599 49.16 56.7599 50.23 57.8599 51.13C58.9499 52.03 60.1899 52.74 61.5599 53.24C62.9299 53.74 64.4299 54 66.0599 54ZM75.8199 36.51C75.8199 35.4 75.5699 34.24 75.0599 33.05C74.5499 31.86 73.8099 30.75 72.8499 29.75C71.8799 28.74 70.7199 27.92 69.3399 27.28C67.9599 26.64 66.4199 26.32 64.6899 26.32C63.2699 26.32 61.9299 26.59 60.6899 27.12C59.4399 27.65 58.3299 28.37 57.3399 29.27C56.3499 30.17 55.5399 31.25 54.8999 32.49C54.2599 33.74 53.8499 35.08 53.6399 36.51H75.8199Z" fill="white"/>
<path d="M0.530014 40.12C0.530014 37.23 1.01001 34.49 1.98001 31.9C2.94001 29.31 4.29002 27.03 6.02002 25.08C7.75002 23.13 9.80002 21.58 12.19 20.43C14.58 19.28 17.19 18.7 20.04 18.7C21.67 18.7 23.18 18.89 24.58 19.27C25.98 19.65 27.22 20.16 28.32 20.81C29.41 21.46 30.38 22.19 31.22 23C32.06 23.81 32.73 24.62 33.24 25.43V4.83002C33.24 3.60002 33.58 2.59001 34.27 1.81001C34.96 1.03001 35.98 0.640015 37.36 0.640015C38.74 0.640015 39.79 1.03001 40.52 1.80001C41.26 2.58001 41.62 3.58002 41.62 4.81002V40.6C41.62 43.44 41.14 46.12 40.17 48.66C39.2 51.2 37.83 53.43 36.05 55.36C34.27 57.29 32.11 58.81 29.57 59.93C27.03 61.05 24.21 61.61 21.11 61.61C18.01 61.61 15.11 61.02 12.57 59.84C10.03 58.66 7.87001 57.1 6.09001 55.15C4.31001 53.2 2.94002 50.92 1.97002 48.33C1.00002 45.74 0.52002 42.99 0.52002 40.11L0.530014 40.12ZM8.91002 40.12C8.91002 42.09 9.20001 43.92 9.79001 45.62C10.37 47.32 11.2 48.78 12.27 50.01C13.34 51.24 14.62 52.2 16.12 52.92C17.62 53.64 19.28 54 21.11 54C22.79 54 24.36 53.67 25.84 53C27.31 52.34 28.61 51.4 29.73 50.21C30.85 49.01 31.72 47.57 32.36 45.86C32.99 44.16 33.31 42.24 33.31 40.12C33.31 38 32.98 36.08 32.32 34.38C31.66 32.68 30.78 31.23 29.69 30.03C28.6 28.83 27.3 27.92 25.8 27.28C24.3 26.64 22.71 26.32 21.04 26.32C19.21 26.32 17.55 26.67 16.05 27.36C14.55 28.05 13.28 29.02 12.24 30.27C11.2 31.52 10.38 32.98 9.80002 34.66C9.22002 36.33 8.92001 38.16 8.92001 40.12H8.91002Z" fill="white"/>
</svg>
