<svg width="407" height="120" viewBox="0 0 407 120" fill="none" xmlns="http://www.w3.org/2000/svg">
<g clip-path="url(#clip0_217_753)">
<path d="M365.5 69.12C365.5 66.23 365.98 63.49 366.95 60.9C367.91 58.31 369.26 56.03 370.99 54.08C372.72 52.13 374.77 50.58 377.16 49.43C379.55 48.28 382.16 47.7 385.01 47.7C386.64 47.7 388.15 47.89 389.55 48.27C390.95 48.65 392.19 49.16 393.29 49.81C394.38 50.46 395.35 51.19 396.19 52C397.03 52.81 397.7 53.62 398.21 54.43V33.83C398.21 32.6 398.55 31.59 399.24 30.81C399.93 30.03 400.95 29.64 402.33 29.64C403.71 29.64 404.76 30.03 405.49 30.8C406.23 31.58 406.59 32.58 406.59 33.81V69.6C406.59 72.44 406.11 75.12 405.14 77.66C404.17 80.2 402.8 82.43 401.02 84.36C399.24 86.29 397.08 87.81 394.54 88.93C392 90.05 389.18 90.61 386.08 90.61C382.98 90.61 380.08 90.02 377.54 88.84C375 87.66 372.84 86.1 371.06 84.15C369.28 82.2 367.91 79.92 366.94 77.33C365.97 74.74 365.49 71.99 365.49 69.11L365.5 69.12ZM373.88 69.12C373.88 71.09 374.17 72.92 374.76 74.62C375.34 76.32 376.17 77.78 377.24 79.01C378.31 80.23 379.59 81.2 381.09 81.92C382.59 82.64 384.25 83 386.08 83C387.76 83 389.33 82.67 390.81 82C392.28 81.34 393.58 80.4 394.7 79.21C395.82 78.01 396.69 76.57 397.33 74.86C397.96 73.16 398.28 71.24 398.28 69.12C398.28 67 397.95 65.08 397.29 63.38C396.63 61.68 395.75 60.23 394.66 59.03C393.57 57.83 392.27 56.92 390.77 56.28C389.27 55.64 387.68 55.32 386.01 55.32C384.18 55.32 382.52 55.67 381.02 56.36C379.52 57.05 378.25 58.02 377.21 59.27C376.17 60.52 375.35 61.98 374.77 63.66C374.19 65.33 373.89 67.16 373.89 69.12H373.88Z" fill="white"/>
<path d="M351.86 35.5C351.86 33.79 352.42 32.38 353.54 31.29C354.66 30.19 355.95 29.65 357.43 29.65C358.91 29.65 360.2 30.2 361.32 31.29C362.44 32.39 363 33.79 363 35.5C363 37.21 362.44 38.6 361.32 39.67C360.2 40.74 358.91 41.27 357.43 41.27C355.95 41.27 354.66 40.74 353.54 39.67C352.42 38.6 351.86 37.21 351.86 35.5ZM353.23 52.11C353.23 50.88 353.58 49.84 354.3 48.98C355.01 48.12 356.05 47.7 357.43 47.7C358.81 47.7 359.84 48.13 360.56 48.98C361.27 49.84 361.63 50.88 361.63 52.11V85.41C361.63 86.64 361.27 87.68 360.56 88.54C359.85 89.4 358.81 89.82 357.43 89.82C356.05 89.82 355.02 89.39 354.3 88.54C353.59 87.69 353.23 86.64 353.23 85.41V52.11Z" fill="white"/>
<path d="M349.4 69.2C349.4 72.09 348.92 74.83 347.95 77.42C346.98 80.02 345.6 82.29 343.8 84.24C342 86.19 339.82 87.74 337.28 88.89C334.74 90.04 331.89 90.61 328.74 90.61C325.59 90.61 322.74 90.03 320.2 88.89C317.66 87.74 315.49 86.19 313.68 84.24C311.88 82.29 310.49 80.01 309.53 77.42C308.56 74.83 308.08 72.08 308.08 69.2C308.08 66.32 308.56 63.57 309.53 60.98C310.49 58.39 311.88 56.11 313.68 54.16C315.48 52.21 317.66 50.64 320.2 49.47C322.74 48.29 325.59 47.7 328.74 47.7C331.89 47.7 334.74 48.29 337.28 49.47C339.82 50.65 341.99 52.21 343.8 54.16C345.6 56.11 346.99 58.39 347.95 60.98C348.91 63.58 349.4 66.32 349.4 69.2ZM316.47 69.2C316.47 71.17 316.75 72.99 317.31 74.66C317.87 76.33 318.68 77.8 319.75 79.05C320.82 80.3 322.1 81.27 323.6 81.96C325.1 82.65 326.81 83 328.74 83C330.67 83 332.32 82.66 333.85 81.96C335.37 81.27 336.67 80.3 337.74 79.05C338.81 77.8 339.62 76.34 340.18 74.66C340.74 72.99 341.02 71.16 341.02 69.2C341.02 67.24 340.74 65.4 340.18 63.7C339.62 62 338.81 60.54 337.74 59.31C336.67 58.09 335.38 57.12 333.85 56.4C332.33 55.68 330.62 55.32 328.74 55.32C326.86 55.32 325.09 55.68 323.6 56.4C322.1 57.12 320.82 58.09 319.75 59.31C318.68 60.53 317.87 62 317.31 63.7C316.75 65.4 316.47 67.24 316.47 69.2Z" fill="white"/>
<path d="M307.11 82.44C308.18 83.19 308.71 84.23 308.71 85.57C308.71 86.8 308.3 87.82 307.49 88.62C306.68 89.42 305.74 89.82 304.67 89.82C304.01 89.82 303.39 89.7 302.8 89.46C302.21 89.22 301.64 88.94 301.08 88.62C299.3 87.55 297.97 86.07 297.08 84.17C296.19 82.27 295.75 79.77 295.75 76.67V34.13C295.75 32.9 296.11 31.84 296.82 30.96C297.53 30.08 298.57 29.64 299.95 29.64C301.33 29.64 302.39 30.08 303.15 30.96C303.91 31.84 304.29 32.9 304.29 34.13V75.29C304.29 77.48 304.53 79.06 305.01 80.02C305.49 80.98 306.19 81.78 307.11 82.43V82.44Z" fill="white"/>
<path d="M274.17 83C276.61 83 278.62 82.68 280.19 82.04C281.76 81.4 283.19 80.54 284.46 79.47C285.37 78.72 286.29 78.48 287.2 78.75C288.11 79.02 288.85 79.54 289.41 80.31C289.97 81.09 290.24 82.01 290.21 83.09C290.18 84.17 289.69 85.11 288.72 85.92C287.04 87.38 284.96 88.53 282.47 89.37C279.98 90.21 277.21 90.63 274.16 90.63C271.11 90.63 268.14 90.09 265.55 89.03C262.96 87.96 260.73 86.48 258.88 84.58C257.02 82.68 255.59 80.42 254.57 77.8C253.55 75.18 253.05 72.32 253.05 69.21C253.05 66.1 253.58 63.25 254.65 60.62C255.72 58 257.17 55.73 258.99 53.8C260.82 51.87 262.93 50.38 265.32 49.31C267.71 48.24 270.2 47.71 272.79 47.71C275.38 47.71 277.86 48.18 280.22 49.11C282.58 50.05 284.65 51.38 286.43 53.12C288.21 54.86 289.63 56.95 290.7 59.38C291.77 61.81 292.3 64.56 292.3 67.6C292.3 69.15 291.93 70.4 291.2 71.33C290.46 72.27 289.23 72.73 287.5 72.73H261.81C262.06 74.27 262.55 75.66 263.26 76.91C263.97 78.16 264.87 79.23 265.97 80.13C267.06 81.03 268.3 81.74 269.67 82.24C271.04 82.74 272.54 83 274.17 83ZM283.93 65.51C283.93 64.4 283.68 63.24 283.17 62.05C282.66 60.86 281.92 59.75 280.96 58.75C279.99 57.74 278.83 56.92 277.45 56.28C276.07 55.64 274.53 55.32 272.8 55.32C271.38 55.32 270.04 55.59 268.8 56.12C267.55 56.65 266.44 57.37 265.45 58.27C264.46 59.17 263.65 60.25 263.01 61.49C262.37 62.74 261.96 64.08 261.75 65.51H283.93Z" fill="white"/>
<path d="M234.65 90.62C232.36 90.62 230.37 90 228.67 88.77C226.97 87.54 225.56 85.35 224.44 82.19L216.28 54.35C215.82 53.12 215.82 51.98 216.28 50.94C216.74 49.9 217.63 49.16 218.95 48.73C220.32 48.3 221.44 48.42 222.3 49.09C223.16 49.76 223.8 50.71 224.21 51.94L232.21 80.9C232.46 81.76 232.81 82.33 233.24 82.63C233.67 82.92 234.14 83.07 234.65 83.07C235.16 83.07 235.65 82.92 236.14 82.63C236.62 82.34 236.99 81.76 237.24 80.9L245.02 51.94C245.43 50.71 246.07 49.76 246.96 49.09C247.85 48.42 248.98 48.3 250.35 48.73C251.67 49.16 252.56 49.89 253.02 50.94C253.48 51.98 253.48 53.12 253.02 54.35L245.02 82.19C243.85 85.35 242.4 87.54 240.68 88.77C238.95 90 236.94 90.62 234.66 90.62H234.65Z" fill="white"/>
<path d="M198.06 83C200.5 83 202.51 82.68 204.08 82.04C205.65 81.4 207.08 80.54 208.35 79.47C209.26 78.72 210.18 78.48 211.09 78.75C212 79.02 212.74 79.54 213.3 80.31C213.86 81.09 214.13 82.01 214.1 83.09C214.07 84.17 213.58 85.11 212.61 85.92C210.93 87.38 208.85 88.53 206.36 89.37C203.87 90.21 201.1 90.63 198.05 90.63C195 90.63 192.03 90.09 189.44 89.03C186.85 87.96 184.62 86.48 182.77 84.58C180.91 82.68 179.48 80.42 178.46 77.8C177.44 75.18 176.94 72.32 176.94 69.21C176.94 66.1 177.47 63.25 178.54 60.62C179.61 58 181.06 55.73 182.88 53.8C184.71 51.87 186.82 50.38 189.21 49.31C191.6 48.24 194.09 47.71 196.68 47.71C199.27 47.71 201.75 48.18 204.11 49.11C206.47 50.05 208.54 51.38 210.32 53.12C212.1 54.86 213.52 56.95 214.59 59.38C215.66 61.81 216.19 64.56 216.19 67.6C216.19 69.15 215.82 70.4 215.09 71.33C214.35 72.27 213.12 72.73 211.39 72.73H185.7C185.95 74.27 186.44 75.66 187.15 76.91C187.86 78.16 188.76 79.23 189.86 80.13C190.95 81.03 192.19 81.74 193.56 82.24C194.93 82.74 196.43 83 198.06 83ZM207.82 65.51C207.82 64.4 207.57 63.24 207.06 62.05C206.55 60.86 205.81 59.75 204.85 58.75C203.88 57.74 202.72 56.92 201.34 56.28C199.96 55.64 198.42 55.32 196.69 55.32C195.27 55.32 193.93 55.59 192.69 56.12C191.44 56.65 190.33 57.37 189.34 58.27C188.35 59.17 187.54 60.25 186.9 61.49C186.26 62.74 185.85 64.08 185.64 65.51H207.82Z" fill="white"/>
<path d="M132.53 69.12C132.53 66.23 133.01 63.49 133.98 60.9C134.94 58.31 136.29 56.03 138.02 54.08C139.75 52.13 141.8 50.58 144.19 49.43C146.58 48.28 149.19 47.7 152.04 47.7C153.67 47.7 155.18 47.89 156.58 48.27C157.98 48.65 159.22 49.16 160.32 49.81C161.41 50.46 162.38 51.19 163.22 52C164.06 52.81 164.73 53.62 165.24 54.43V33.83C165.24 32.6 165.58 31.59 166.27 30.81C166.96 30.03 167.98 29.64 169.36 29.64C170.74 29.64 171.79 30.03 172.52 30.8C173.26 31.58 173.62 32.58 173.62 33.81V69.6C173.62 72.44 173.14 75.12 172.17 77.66C171.2 80.2 169.83 82.43 168.05 84.36C166.27 86.29 164.11 87.81 161.57 88.93C159.03 90.05 156.21 90.61 153.11 90.61C150.01 90.61 147.11 90.02 144.57 88.84C142.03 87.66 139.87 86.1 138.09 84.15C136.31 82.2 134.94 79.92 133.97 77.33C133 74.74 132.52 71.99 132.52 69.11L132.53 69.12ZM140.91 69.12C140.91 71.09 141.2 72.92 141.79 74.62C142.37 76.32 143.2 77.78 144.27 79.01C145.34 80.24 146.62 81.2 148.12 81.92C149.62 82.64 151.28 83 153.11 83C154.79 83 156.36 82.67 157.84 82C159.31 81.34 160.61 80.4 161.73 79.21C162.85 78.01 163.72 76.57 164.36 74.86C164.99 73.16 165.31 71.24 165.31 69.12C165.31 67 164.98 65.08 164.32 63.38C163.66 61.68 162.78 60.23 161.69 59.03C160.6 57.83 159.3 56.92 157.8 56.28C156.3 55.64 154.71 55.32 153.04 55.32C151.21 55.32 149.55 55.67 148.05 56.36C146.55 57.05 145.28 58.02 144.24 59.27C143.2 60.52 142.38 61.98 141.8 63.66C141.22 65.33 140.92 67.16 140.92 69.12H140.91Z" fill="white"/>
<path d="M41.91 85.73C41.23 85.73 40.55 85.56 39.92 85.19C38.01 84.09 37.35 81.64 38.46 79.73L63.55 36.27C64.65 34.36 67.09 33.71 69.01 34.81C70.92 35.91 71.58 38.36 70.47 40.27L45.38 83.73C44.64 85.01 43.3 85.73 41.92 85.73H41.91Z" fill="white"/>
<path d="M54.46 7.99C56.33 7.99 58.17 8.48 59.79 9.42L95.61 30.1C98.9 32 100.94 35.53 100.94 39.33V80.69C100.94 84.48 98.9 88.02 95.61 89.92L59.79 110.6C58.17 111.53 56.33 112.03 54.46 112.03C52.59 112.03 50.75 111.54 49.13 110.6L13.32 89.9C10.03 88 7.99 84.47 7.99 80.67V39.32C7.99 35.53 10.03 31.99 13.32 30.09L49.13 9.42C50.75 8.49 52.59 7.99 54.46 7.99ZM54.46 0C51.24 0 48.02 0.83 45.14 2.5L9.32 23.18C3.55 26.51 0 32.66 0 39.32V80.68C0 87.34 3.55 93.49 9.32 96.82L45.14 117.5C48.02 119.17 51.24 120 54.46 120C57.68 120 60.9 119.17 63.78 117.5L99.6 96.82C105.37 93.49 108.92 87.34 108.92 80.68V39.32C108.92 32.66 105.37 26.51 99.6 23.18L63.78 2.5C60.9 0.83 57.68 0 54.46 0Z" fill="white"/>
</g>
<defs>
<clipPath id="clip0_217_753">
<rect width="407" height="120" fill="white"/>
</clipPath>
</defs>
</svg>
